{"title":"Animals.2014.1080p.WEB-DL.DD5.1.H.264-RARBG","uid":11932400,"size":3115821552,"categoryP":"video","categoryS":"hd___tv_shows","magnet":"?xt=urn:btih:0c25f61d7eae9cf92b724313747e0b8e5b179622&amp;dn=Animals.2014.1080p.WEB-DL.DD5.1.H.264-RARBG&amp;tr=udp%3A%2F%2Ftracker.openbittorrent.com%3A80&amp;tr=udp%3A%2F%2Fopen.demonii.com%3A1337&amp;tr=udp%3A%2F%2Ftracker.coppersurfer.tk%3A6969&amp;tr=udp%3A%2F%2Fexodus.desync.com%3A6969","seeders":1,"leechers":0,"uploader":"frostyon420","files":3,"time":1431842443,"description":"\n\n\nVideo\nID                          : 1\nFormat                      : AVC\nFormat/Info                 : Advanced Video Codec\nFormat profile              : &lt;a class=&quot;__cf_email__&quot; href=&quot;/cdn-cgi/l/email-protection&quot; data-cfemail=&quot;a7efcec0cfe7eb938997&quot;&gt;[email&amp;#160;protected]&lt;/a&gt;&lt;script data-cfhash='f9e31' type=&quot;text/javascript&quot;&gt;\n/* &lt;![CDATA[ */!function(){try{var t=&quot;currentScript&quot;in document?document.currentScript:function(){for(var t=document.getElementsByTagName(&quot;script&quot;),e=t.length;e--;)if(t[e].getAttribute(&quot;data-cfhash&quot;))return t[e]}();if(t&amp;&amp;t.previousSibling){var e,r,n,i,c=t.previousSibling,a=c.getAttribute(&quot;data-cfemail&quot;);if(a){for(e=&quot;&quot;,r=parseInt(a.substr(0,2),16),n=2;a.length-n;n+=2)i=parseInt(a.substr(n,2),16)^r,e+=String.fromCharCode(i);e=document.createTextNode(e),c.parentNode.replaceChild(e,c)}t.parentNode.removeChild(t);}}catch(u){}}()/* ]]&gt; */&lt;/script&gt;\nFormat settings, CABAC      : Yes\nFormat settings, ReFrames   : 5 frames\nCodec ID                    : V_MPEG4/ISO/AVC\nDuration                    : 1h 26mn\nBit rate                    : 4 344 Kbps\nWidth                       : 1 916 pixels\nHeight                      : 800 pixels\nDisplay aspect ratio        : 2.40:1\nFrame rate mode             : Constant\nFrame rate                  : 23.976 fps\nColor space                 : YUV\nChroma subsampling          : 4:2:0\nBit depth                   : 8 bits\nScan type                   : Progressive\nBits/(Pixel*Frame)          : 0.118\nStream size                 : 2.61 GiB (90%)\nTitle                       : Animals.2014.1080p.WEB-DL.DD5.1.H.264-RARBG\nLanguage                    : English\nDefault                     : Yes\nForced                      : No\nColor primaries             : BT.709\nTransfer characteristics    : BT.709\nMatrix coefficients         : BT.709\nColor range                 : Limited\n\nAudio\nID                          : 2\nFormat                      : AC-3\nFormat/Info                 : Audio Coding 3\nMode extension              : CM (complete main)\nFormat settings, Endianness : Big\nCodec ID                    : A_AC3\nDuration                    : 1h 26mn\nBit rate mode               : Constant\nBit rate                    : 384 Kbps\nChannel(s)                  : 6 channels\nChannel positions           : Front: L C R, Side: L R, LFE\nSampling rate               : 48.0 KHz\nBit depth                   : 16 bits\nCompression mode            : Lossy\nStream size                 : 237 MiB (8%)\nTitle                       : Animals.2014.1080p.WEB-DL.DD5.1.H.264-RARBG\nLanguage                    : English\nDefault                     : Yes\nForced                      : No\n\nText\nID                          : 3\nFormat                      : UTF-8\nCodec ID                    : S_TEXT/UTF8\nCodec ID/Info               : UTF-8 Plain Text\nTitle                       : English\nLanguage                    : English\nDefault                     : No\nForced                      : No\n\nMenu\n00:00:00.000                : en:Opening Sequence\n00:05:30.000                : en:I Love You!\n00:11:33.000                : en:Coreography Outfit\n00:17:04.000                : en:Welcome!\n00:21:55.000                : en:Animals In The Zoo\n00:27:27.000                : en:Fruitful\n00:33:08.000                : en:Anything?\n00:38:29.000                : en:Nothing Left\n00:43:45.000                : en:Not My Fault\n00:48:47.000                : en:Are You Okay?\n00:53:41.000                : en:I Can't Do This\n00:59:15.000                : en:Walk Away Now\n01:04:21.000                : en:Healing Process\n01:10:01.000                : en:Authorized Personnel Only\n01:15:15.000                : en:You Are Gone\n01:21:47.000                : en:End Credits","torrent":{"xt":"urn:btih:0c25f61d7eae9cf92b724313747e0b8e5b179622","amp;dn":"Animals.2014.1080p.WEB-DL.DD5.1.H.264-RARBG","amp;tr":["udp%3A%2F%2Ftracker.openbittorrent.com%3A80","udp%3A%2F%2Fopen.demonii.com%3A1337","udp%3A%2F%2Ftracker.coppersurfer.tk%3A6969","udp%3A%2F%2Fexodus.desync.com%3A6969"],"infoHash":"0c25f61d7eae9cf92b724313747e0b8e5b179622","infoHashBuffer":{"type":"Buffer","data":[12,37,246,29,126,174,156,249,43,114,67,19,116,126,11,142,91,23,150,34]},"announce":[],"urlList":[]}}